HIERARCHY
ROOT Hips
{
	OFFSET 0.00000 0.00000 0.00000
	CHANNELS 6 Xposition Yposition Zposition Zrotation Yrotation Xrotation 
	JOINT LHipJoint
	{
		OFFSET 0 0 0
		CHANNELS 3 Zrotation Yrotation Xrotation
		JOINT LeftUpLeg
		{
			OFFSET 1.65412 -1.54119 0.76744
			CHANNELS 3 Zrotation Yrotation Xrotation
			JOINT LeftLeg
			{
				OFFSET 2.19550 -6.03209 0.00000
				CHANNELS 3 Zrotation Yrotation Xrotation
				JOINT LeftFoot
				{
					OFFSET 2.38814 -6.56138 0.00000
					CHANNELS 3 Zrotation Yrotation Xrotation
					JOINT LeftToeBase
					{
						OFFSET 0.17337 -0.47632 1.75875
						CHANNELS 3 Zrotation Yrotation Xrotation
						End Site
						{
							OFFSET 0.00000 -0.00000 0.92050
						}
					}
				}
			}
		}
	}
	JOINT RHipJoint
	{
		OFFSET 0 0 0
		CHANNELS 3 Zrotation Yrotation Xrotation
		JOINT RightUpLeg
		{
			OFFSET -1.40291 -1.54119 0.76744
			CHANNELS 3 Zrotation Yrotation Xrotation
			JOINT RightLeg
			{
				OFFSET -2.22156 -6.10370 0.00000
				CHANNELS 3 Zrotation Yrotation Xrotation
				JOINT RightFoot
				{
					OFFSET -2.46840 -6.78188 0.00000
					CHANNELS 3 Zrotation Yrotation Xrotation
					JOINT RightToeBase
					{
						OFFSET -0.15659 -0.43024 1.84117
						CHANNELS 3 Zrotation Yrotation Xrotation
						End Site
						{
							OFFSET -0.00000 -0.00000 0.95587
						}
					}
				}
			}
		}
	}
	JOINT LowerBack
	{
		OFFSET 0 0 0
		CHANNELS 3 Zrotation Yrotation Xrotation
		JOINT Spine
		{
			OFFSET -0.01936 1.82120 -0.32061
			CHANNELS 3 Zrotation Yrotation Xrotation
			JOINT Spine1
			{
				OFFSET -0.00532 1.85767 -0.00071
				CHANNELS 3 Zrotation Yrotation Xrotation
				JOINT Neck
				{
					OFFSET 0 0 0
					CHANNELS 3 Zrotation Yrotation Xrotation
					JOINT Neck1
					{
						OFFSET -0.10687 1.58194 0.10810
						CHANNELS 3 Zrotation Yrotation Xrotation
						JOINT Head
						{
							OFFSET 0.15346 1.57382 -0.25612
							CHANNELS 3 Zrotation Yrotation Xrotation
							End Site
							{
								OFFSET 0.05334 1.61251 -0.10513
							}
						}
					}
				}
				JOINT LeftShoulder
				{
					OFFSET 0 0 0
					CHANNELS 3 Zrotation Yrotation Xrotation
					JOINT LeftArm
					{
						OFFSET 2.85758 0.89498 -0.01485
						CHANNELS 3 Zrotation Yrotation Xrotation
						JOINT LeftForeArm
						{
							OFFSET 4.79185 -0.00000 -0.00000
							CHANNELS 3 Zrotation Yrotation Xrotation
							JOINT LeftHand
							{
								OFFSET 2.65553 -0.00000 0.00000
								CHANNELS 3 Zrotation Yrotation Xrotation
								JOINT LeftFingerBase
								{
									OFFSET 0 0 0
									CHANNELS 3 Zrotation Yrotation Xrotation
									JOINT LeftHandIndex1
									{
										OFFSET 0.74390 -0.00000 0.00000
										CHANNELS 3 Zrotation Yrotation Xrotation
										End Site
										{
											OFFSET 0.59975 -0.00000 0.00000
										}
									}
								}
								JOINT LThumb
								{
									OFFSET 0 0 0
									CHANNELS 3 Zrotation Yrotation Xrotation
									End Site
									{
										OFFSET 0.60891 -0.00000 0.60891
									}
								}
							}
						}
					}
				}
				JOINT RightShoulder
				{
					OFFSET 0 0 0
					CHANNELS 3 Zrotation Yrotation Xrotation
					JOINT RightArm
					{
						OFFSET -2.93906 0.88031 0.02490
						CHANNELS 3 Zrotation Yrotation Xrotation
						JOINT RightForeArm
						{
							OFFSET -4.77254 -0.00000 -0.00000
							CHANNELS 3 Zrotation Yrotation Xrotation
							JOINT RightHand
							{
								OFFSET -2.75995 -0.00000 -0.00000
								CHANNELS 3 Zrotation Yrotation Xrotation
								JOINT RightFingerBase
								{
									OFFSET 0 0 0
									CHANNELS 3 Zrotation Yrotation Xrotation
									JOINT RightHandIndex1
									{
										OFFSET -0.70162 -0.00000 0.00000
										CHANNELS 3 Zrotation Yrotation Xrotation
										End Site
										{
											OFFSET -0.56566 -0.00000 0.00000
										}
									}
								}
								JOINT RThumb
								{
									OFFSET 0 0 0
									CHANNELS 3 Zrotation Yrotation Xrotation
									End Site
									{
										OFFSET -0.57430 -0.00000 0.57430
									}
								}
							}
						}
					}
				}
			}
		}
	}
}
MOTION
Frames: 7
Frame Time: .0083333
-16.9641 15.9914 11.5518 0 0 0 0 0 0 -21 0 0 0 0 0 0 0 0 0 0 0 0 0 0 21 0 0 0 0 0 0 0 0 0 0 0 0 0 0 0 0 0 0 0 0 0 0 -16 0 0 21 0 0 11 0 0 0 -8 0 0 0 0 0 0 0 0 0 0 0 0 0 0 0 0 0 0 0 0 8 0 0 0 0 0 0 0 0 0 0 0 0 0 0 0 0 0
-16.9641 15.9914 11.5518 -177.6890 59.6552 -177.0610 0.0000 0.0000 0.0000 -20.3327 -14.1004 -4.2009 1.6900 8.1881 23.2868 0.5822 5.3390 -17.3469 0.0932 -1.9690 -5.4201 0.0000 0.0000 0.0000 22.1752 8.3765 -1.7522 -1.4216 -7.5401 21.3256 -0.5810 -11.8934 -23.1970 -0.0058 -0.4907 1.3485 0.4736 0.0348 9.2558 -0.1230 0.0948 -2.1164 -0.4109 0.0222 -7.4313 -10.2474 0.8669 -8.8097 19.3429 1.0776 7.7115 7.8747 1.3478 3.5688 0.0000 -0.0000 0.0000 -91.3073 -0.0144 16.9904 10.8582 -18.0706 -1.7317 -0.0000 -0.0000 8.0320 13.0744 11.3825 2.6242 -7.1250 0.0000 -0.0000 -12.4861 41.3291 1.1506 0.0000 -0.0000 0.0000 90.4435 -2.2999 30.7376 -12.0040 19.8107 -2.1037 0.0000 0.0000 14.7403 -17.4135 14.6377 -4.5317 7.1250 -0.0000 -0.0000 6.8575 -14.7474 4.9220
-16.9684 15.9911 11.5441 -177.5530 59.6161 -176.8270 0.0000 0.0000 0.0000 -20.2539 -14.1732 -4.4224 1.7167 8.2491 23.4733 0.5932 5.4315 -17.5388 0.1180 -2.2146 -6.0992 0.0000 0.0000 0.0000 22.1934 8.3486 -1.8242 -1.4072 -7.5034 21.2155 -0.5845 -11.8732 -23.2081 -0.0023 -0.3082 0.8468 0.5690 0.0568 9.1521 -0.0994 0.1369 -2.1272 -0.4461 0.0393 -7.3825 -10.2775 0.7565 -8.8755 19.2846 0.9260 7.7717 7.8571 1.2729 3.6218 0.0000 -0.0000 0.0000 -91.3493 -0.0941 16.9645 10.8476 -18.0543 -1.7284 -0.0000 -0.0000 8.1033 12.8964 11.3029 2.5695 -7.1250 0.0000 -0.0000 -12.6218 41.2335 1.1938 0.0000 -0.0000 0.0000 90.4148 -2.1346 30.5363 -11.9390 19.7131 -2.0817 0.0000 0.0000 14.7971 -17.3840 14.6053 -4.5138 7.1250 -0.0000 -0.0000 6.8768 -14.7838 4.9306
-16.9796 15.9921 11.5404 -177.1970 59.6196 -176.3620 0.0000 0.0000 0.0000 -20.0199 -14.2885 -4.8459 1.7768 8.3848 23.8890 0.6115 5.3442 -17.6810 0.1199 -2.2321 -6.1475 0.0000 0.0000 0.0000 22.3637 8.5610 -1.7830 -1.3665 -7.3986 20.9018 -0.5783 -12.0029 -23.2854 -0.0026 -0.3301 0.9070 0.7508 0.0949 9.1382 -0.0442 0.2137 -2.1678 -0.5022 0.0700 -7.4167 -10.2985 0.6385 -8.9703 19.1995 0.7662 7.8297 7.8286 1.1935 3.6807 0.0000 -0.0000 0.0000 -91.3801 -0.2248 16.9160 10.8150 -18.0042 -1.7183 -0.0000 -0.0000 8.1887 12.7121 11.2116 2.5114 -7.1250 0.0000 -0.0000 -12.7598 41.1258 1.2419 0.0000 -0.0000 0.0000 90.3607 -2.1259 30.4176 -11.9570 19.7402 -2.0878 0.0000 0.0000 14.8169 -17.4211 14.5165 -4.4972 7.1250 -0.0000 -0.0000 6.8497 -14.8721 4.8979
-16.9970 15.9949 11.5429 -176.0400 59.6208 -175.2340 0.0000 0.0000 0.0000 -19.2941 -14.2985 -5.2451 1.8078 8.4536 24.1005 0.6133 5.2737 -17.6502 0.1203 -2.2359 -6.1581 0.0000 0.0000 0.0000 23.0488 9.0180 -1.7442 -1.3453 -7.3434 20.7367 -0.5314 -12.4851 -23.3714 -0.0007 -0.1753 0.4816 1.3091 0.0888 9.3132 0.1235 0.2885 -2.2378 -0.6524 0.0846 -7.5903 -10.2483 0.5457 -9.1600 19.0339 0.6225 8.0496 7.7671 1.1285 3.8012 -0.0000 -0.0000 0.0000 -91.4041 -0.2929 16.9542 10.8226 -18.0158 -1.7206 -0.0000 -0.0000 7.9731 12.7479 11.2350 2.5239 -7.1250 0.0000 -0.0000 -12.7344 41.1523 1.2309 -0.0000 -0.0000 0.0000 90.3329 -2.1394 30.3553 -11.9662 19.7539 -2.0908 0.0000 0.0000 14.9097 -17.5156 14.5093 -4.5209 7.1250 -0.0000 -0.0000 6.7852 -14.8706 4.8513
-17.0019 15.9946 11.5327 -175.7880 59.5690 -175.0110 0.0000 0.0000 0.0000 -19.1834 -14.3225 -5.3636 1.8362 8.5162 24.2933 0.6192 5.1857 -17.6540 0.1152 -2.1887 -6.0273 0.0000 0.0000 0.0000 23.1601 9.0011 -1.6321 -1.3244 -7.2882 20.5722 -0.5029 -12.7009 -23.3470 -0.0002 0.1010 -0.2775 1.4600 0.0875 9.3198 0.1732 0.3088 -2.2078 -0.6882 0.0894 -7.5612 -10.3616 0.4586 -9.2517 19.0206 0.4967 8.2390 7.7842 1.0706 3.8916 0.0000 0.0000 0.0000 -91.4707 -0.3436 17.0754 10.8437 -18.0483 -1.7272 -0.0000 -0.0000 7.7186 12.7881 11.2151 2.5277 -7.1250 0.0000 -0.0000 -12.6949 41.1362 1.2320 0.0000 0.0000 0.0000 90.2675 -2.1247 30.2080 -11.9880 19.7867 -2.0982 0.0000 0.0000 15.0740 -17.5801 14.5161 -4.5406 7.1250 -0.0000 -0.0000 6.7415 -14.8576 4.8215
-16.9948 15.9898 11.5091 -176.6910 59.4309 -175.8670 0.0000 0.0000 0.0000 -19.8187 -14.3670 -5.2530 1.8651 8.5792 24.4876 0.6379 5.0329 -17.7542 0.1110 -2.1477 -5.9140 0.0000 0.0000 0.0000 22.5460 8.5229 -1.4650 -1.3006 -7.2251 20.3839 -0.5351 -12.4363 -23.3524 -0.0012 0.2229 -0.6124 1.1101 0.0967 9.1675 0.0387 0.2652 -2.1275 -0.6252 0.0816 -7.3889 -10.5742 0.3038 -9.1925 19.1614 0.2836 8.3369 7.8619 0.9675 3.9425 -0.0000 -0.0000 0.0000 -91.4902 -0.2893 17.4511 10.9285 -18.1786 -1.7535 -0.0000 -0.0000 7.2765 12.6830 11.1476 2.4914 -7.1250 0.0000 -0.0000 -12.7700 41.0595 1.2642 -0.0000 -0.0000 0.0000 90.2256 -2.1045 30.0323 -11.9800 19.7747 -2.0955 0.0000 0.0000 15.2325 -17.6332 14.3509 -4.5047 7.1250 -0.0000 -0.0000 6.7016 -15.0235 4.7686
